<svg xmlns="http://www.w3.org/2000/svg" viewBox="0 0 240 160" role="img" aria-label="Failure illustration">
  <defs>
    <linearGradient id="g1" x1="0" y1="0" x2="1" y2="1">
      <stop offset="0%" stop-color="#f87171"/>
      <stop offset="100%" stop-color="#991b1b"/>
    </linearGradient>
    <linearGradient id="g2" x1="0" y1="0" x2="0" y2="1">
      <stop offset="0%" stop-color="#1f2937" stop-opacity="0.15"/>
      <stop offset="100%" stop-color="#1f2937" stop-opacity="0.0"/>
    </linearGradient>
    <filter id="s" x="-10%" y="-10%" width="120%" height="120%">
      <feDropShadow dx="0" dy="2" stdDeviation="3" flood-opacity="0.35"/>
    </filter>
  </defs>
  <rect width="100%" height="100%" rx="16" fill="#fff"/>
  <g transform="translate(20,18)">
    <rect x="0" y="0" width="200" height="124" rx="14" fill="#fef2f2" stroke="#fecaca"/>
    <g transform="translate(22,16)" filter="url(#s)">
      <circle cx="40" cy="36" r="28" fill="url(#g1)"/>
      <path d="M34 22l10 10M44 22L34 32" stroke="#fff" stroke-width="3" stroke-linecap="round"/>
    </g>
    <g transform="translate(84,22)">
      <rect x="0" y="0" width="92" height="10" rx="5" fill="#fecaca"/>
      <rect x="0" y="18" width="72" height="10" rx="5" fill="#fecaca"/>
      <rect x="0" y="36" width="60" height="10" rx="5" fill="#fecaca"/>
    </g>
    <g transform="translate(20,92)">
      <rect x="0" y="0" width="160" height="10" rx="5" fill="#fca5a5"/>
      <rect x="0" y="0" width="100" height="10" rx="5" fill="url(#g1)"/>
    </g>
  </g>
  <rect x="10" y="8" width="220" height="20" rx="10" fill="url(#g2)"/>
</svg>
